<svg xmlns="http://www.w3.org/2000/svg" width="48" height="48" viewBox="0 0 48 48" role="img" aria-label="Cyber Assessment Agent">
  <defs>
    <linearGradient id="ic-tile" x1="0" y1="0" x2="0.85" y2="1">
      <stop offset="0" stop-color="#E0402F"/>
      <stop offset="0.55" stop-color="#DA291C"/>
      <stop offset="1" stop-color="#A81410"/>
    </linearGradient>
    <linearGradient id="ic-gold" x1="0" y1="0" x2="0.55" y2="1">
      <stop offset="0" stop-color="#FFD35C"/>
      <stop offset="0.42" stop-color="#FFC72C"/>
      <stop offset="1" stop-color="#F0A500"/>
    </linearGradient>
  </defs>
  <path d="M24 3.2 L40 6.6 Q41 6.85 41 7.9 V24.6 Q41 36.6 24 45 Q7 36.6 7 24.6 V7.9 Q7 6.85 8 6.6 Z" fill="url(#ic-tile)" stroke="url(#ic-gold)" stroke-width="2.6" stroke-linejoin="round"/>
  <path d="M36.25 36.4H33.572Q33.546 31.42 32.448 22.971Q31.055 12.117 29.315 12.117Q28.298 12.117 27.36 16.891Q25.62 25.547 25.62 34.683H22.675Q22.648 29.806 21.791 22.181Q20.693 12.117 19.14 12.117Q17.427 12.117 15.82 22.936Q14.481 31.901 14.428 36.4H11.75Q11.777 33.446 12.66 27.573Q13.731 20.566 15.204 16.101Q17.078 10.4 19.14 10.4Q21.095 10.4 22.621 15.449Q23.612 18.746 24.147 22.765Q24.388 19.536 25.727 15.483Q27.414 10.4 29.288 10.4Q31.216 10.4 32.957 16.136Q34.349 20.669 35.366 27.676Q36.223 33.549 36.25 36.4Z" fill="url(#ic-gold)"/>
</svg>
